<svg id="Capa_1" data-name="Capa 1" xmlns="http://www.w3.org/2000/svg" viewBox="0 0 66.8 66.8"><defs><style>.cls-1{fill:#b8336a}</style></defs><path class="cls-1" d="M33.5 0A33.4 33.4 0 110 33.3v-.5A33.36 33.36 0 0133.5 0zm21.3 42.9c.1-6.6.1-13.1 0-19.7a11.47 11.47 0 00-11.5-11.3h-20a11.39 11.39 0 00-11.2 10.9c-.1 6.8-.1 13.5 0 20.3s5 11.6 11.9 11.6h9.5v.1h5.6a32.13 32.13 0 006.2-.2c5.7-1 9.4-5.5 9.5-11.7z" id="_Grupo_" data-name="Grupo"/><path class="cls-1" d="M51.4 33.3c0 3 .1 6 0 9a9.44 9.44 0 01-9.6 9.1H25.1c-5.6 0-9.7-4.2-9.7-10-.1-5.3-.1-10.7 0-16 0-6.2 4-10.1 10.2-10.1h16a9.42 9.42 0 019.6 7.7 25.66 25.66 0 01.1 4.8c.1 1.9.1 3.7.1 5.5zm-29.8 0a11.9 11.9 0 1012.1-11.7h-.1a11.74 11.74 0 00-11.9 11.58zm27.4-11a3.26 3.26 0 00-3.09-3.4h-.21a3.37 3.37 0 00-3.4 3.34v.06a3.49 3.49 0 003.4 3.3 3.33 3.33 0 003.3-3.3z"/><path class="cls-1" d="M24.9 33.5a8.5 8.5 0 118.6 8.4h-.2a8.39 8.39 0 01-8.4-8.38z"/></svg>