<svg data-name="Capa 1" xmlns="http://www.w3.org/2000/svg" viewBox="0 0 68.99 69.17"><path d="M37.11 69.17h-5.8c-.1-.3-.5-.2-.7-.3a36.18 36.18 0 01-9.7-2.5c-15-6.3-23.3-21.9-20.3-38.3 3.5-19.4 22.2-30.8 40.1-27.5a34.48 34.48 0 0127.71 40.12l-.11.58c-3 14.1-11.9 22.9-25.7 26.9a53.71 53.71 0 01-5.5 1zm.5-39a5.44 5.44 0 01-.1-2.2c.1-.7-.2-1-.9-1h-5.2C29 27 29 27 29 29.37c0 7.2 0 14.5-.1 21.7 0 1 .3 1.3 1.3 1.3 2-.1 4.1-.1 6.1 0 1 0 1.2-.4 1.2-1.3-.2-3.8.1-7.7 0-11.5v-2.3a4.63 4.63 0 014.4-4.2c2-.2 3.6 1.1 4.1 3.4a7 7 0 01.2 2.5v12.2c0 .7.1 1.2.9 1.2h6.7c.7 0 .8-.3.8-.8-.1-5.3.2-10.6-.2-16-.3-4.5-3-7.9-6.9-8.8s-7.19-.2-9.89 3.4zM16 39.57v11.6c0 .8.2 1.1 1.1 1.1h6.5c.8 0 .9-.3.9-1v-23.4c0-.8-.3-1-1.1-1H17c-.9 0-1.1.3-1.1 1.1.1 3.9.1 7.7.1 11.6zm4.1-16a4.57 4.57 0 004.9-4.22v-.17a4.45 4.45 0 00-4.3-4.5h-.4a4.46 4.46 0 00-.6 8.9z" fill="#b8336a"/></svg>