<svg id="Capa_1" data-name="Capa 1" xmlns="http://www.w3.org/2000/svg" viewBox="0 0 69.17 67.91"><defs><style>.cls-1{fill:#b8336a;}</style></defs><title>git-hub-logo</title><path class="cls-1" d="M40.88,50.19c1.7-.4,3.2-.6,4.7-1,5.8-1.5,9.3-5.2,10.4-11.1a18.13,18.13,0,0,0-.3-9.8,11.06,11.06,0,0,0-2.2-3.8,1.39,1.39,0,0,1-.3-1.5,12.21,12.21,0,0,0-.2-7.3,1.17,1.17,0,0,0-1.31-1h-.29a16.3,16.3,0,0,0-6.7,2.7,3.79,3.79,0,0,1-3.3.5,30.07,30.07,0,0,0-14.3.1,3.15,3.15,0,0,1-2.5-.4,18.4,18.4,0,0,0-6.2-2.8c-1.9-.4-2.1-.3-2.6,1.5a13,13,0,0,0-.1,6.5,1.73,1.73,0,0,1-.4,1.8c-4.8,5.4-3.1,17,1.5,21.1a18.63,18.63,0,0,0,9.5,4.2l1.8.3a7.27,7.27,0,0,0-2,4.1,1.09,1.09,0,0,1-.8.8,7.1,7.1,0,0,1-9.2-2.8,9.53,9.53,0,0,0-1.8-2.2,6.39,6.39,0,0,0-2.9-1.6c-.7-.2-1.7-.4-2.1.3s.6,1.2,1.2,1.6a8.64,8.64,0,0,1,3.4,4.4c1.8,5.1,6.2,6.3,10.8,5.5,1.1-.2,1.3,0,1.3,1.1-.1,1.4,0,2.7,0,4.1q0,3.3-3,2.1c-11.1-4.4-18.6-12.2-21.7-23.7C-3.72,26,6.08,5.39,28,.79a32.6,32.6,0,0,1,29.5,8.1,33.67,33.67,0,0,1,11.6,27.7,34.6,34.6,0,0,1-22.8,30.8c-2.3.9-3.2.3-3.2-2.2v-8C43.08,54.59,42.78,52.29,40.88,50.19Z" transform="translate(0 0)"/></svg>