<svg id="Capa_1" data-name="Capa 1" xmlns="http://www.w3.org/2000/svg" viewBox="0 0 66.8 66.8"><defs><style>.cls-1{fill:#b8336a;}</style></defs><title>instagram-logo</title><g id="_Grupo_" data-name=" Grupo "><path class="cls-1" d="M33.5,0A33.4,33.4,0,1,1,0,33.3v-.5A33.36,33.36,0,0,1,33.5,0ZM54.8,42.9c.1-6.6.1-13.1,0-19.7A11.47,11.47,0,0,0,43.3,11.9h-20A11.39,11.39,0,0,0,12.1,22.8c-.1,6.8-.1,13.5,0,20.3s5,11.6,11.9,11.6h9.5v.1h5.6a32.13,32.13,0,0,0,6.2-.2C51,53.6,54.7,49.1,54.8,42.9Z" transform="translate(0 0)"/></g><path class="cls-1" d="M51.4,33.3c0,3,.1,6,0,9a9.44,9.44,0,0,1-9.6,9.1H25.1c-5.6,0-9.7-4.2-9.7-10-.1-5.3-.1-10.7,0-16,0-6.2,4-10.1,10.2-10.1h16A9.42,9.42,0,0,1,51.2,23a25.66,25.66,0,0,1,.1,4.8C51.4,29.7,51.4,31.5,51.4,33.3Zm-29.8,0A11.9,11.9,0,1,0,33.7,21.6h-.1A11.74,11.74,0,0,0,21.7,33.18h0ZM49,22.3a3.26,3.26,0,0,0-3.09-3.4H45.7a3.37,3.37,0,0,0-3.4,3.34h0v.06h0a3.49,3.49,0,0,0,3.4,3.3A3.33,3.33,0,0,0,49,22.3Z" transform="translate(0 0)"/><path class="cls-1" d="M24.9,33.5a8.5,8.5,0,1,1,8.6,8.4h-.2a8.39,8.39,0,0,1-8.4-8.38h0Z" transform="translate(0 0)"/></svg>