<svg id="Capa_1" data-name="Capa 1" xmlns="http://www.w3.org/2000/svg" viewBox="0 0 68.99 69.17"><defs><style>.cls-1{fill:#b8336a;}</style></defs><title>linkedin-logo</title><path class="cls-1" d="M37.11,69.17h-5.8c-.1-.3-.5-.2-.7-.3a36.18,36.18,0,0,1-9.7-2.5c-15-6.3-23.3-21.9-20.3-38.3,3.5-19.4,22.2-30.8,40.1-27.5A34.48,34.48,0,0,1,68.42,40.69l-.11.58c-3,14.1-11.9,22.9-25.7,26.9A53.71,53.71,0,0,1,37.11,69.17Zm.5-39a5.44,5.44,0,0,1-.1-2.2c.1-.7-.2-1-.9-1h-5.2C29,27,29,27,29,29.37c0,7.2,0,14.5-.1,21.7,0,1,.3,1.3,1.3,1.3,2-.1,4.1-.1,6.1,0,1,0,1.2-.4,1.2-1.3-.2-3.8.1-7.7,0-11.5v-2.3a4.63,4.63,0,0,1,4.4-4.2c2-.2,3.6,1.1,4.1,3.4a7,7,0,0,1,.2,2.5v12.2c0,.7.1,1.2.9,1.2h6.7c.7,0,.8-.3.8-.8-.1-5.3.2-10.6-.2-16-.3-4.5-3-7.9-6.9-8.8S40.31,26.57,37.61,30.17ZM16,39.57v11.6c0,.8.2,1.1,1.1,1.1h6.5c.8,0,.9-.3.9-1V27.87c0-.8-.3-1-1.1-1H17c-.9,0-1.1.3-1.1,1.1C16,31.87,16,35.67,16,39.57Zm4.1-16A4.57,4.57,0,0,0,25,19.35h0v-.17a4.45,4.45,0,0,0-4.3-4.5h-.4a4.46,4.46,0,0,0-.6,8.9Z" transform="translate(0 0)"/></svg>